<svg width="40" height="40" viewBox="0 0 40 40" fill="none" xmlns="http://www.w3.org/2000/svg">
<path fill-rule="evenodd" clip-rule="evenodd" d="M29.9998 6.66672L36.6664 13.3334V33.3334H3.33309L3.33301 15.156C4.12191 16.3554 5.2248 17.7425 6.66637 18.9189L6.66645 30H33.3331V14.1667L29.1664 10L26.0621 10.0002C25.6371 9.16789 24.9227 7.93062 23.8954 6.66672H29.9998ZM29.9998 25V26.6667H9.9998V25H29.9998ZM29.9998 20V21.6667H19.9998V20.0752C20.042 20.0504 20.0841 20.0253 20.126 20H29.9998ZM14.1664 3.33336C21.7498 3.33336 24.9998 11.6667 24.9998 11.6667C24.9998 11.6667 21.7498 20 14.1664 20C6.58309 20 3.33309 11.6667 3.33309 11.6667C3.33309 11.6667 6.58309 3.33336 14.1664 3.33336ZM14.1664 5.41672C9.37816 5.41672 6.58309 9.875 5.70559 11.6667C6.58309 13.4584 9.37809 17.9167 14.1665 17.9167C18.9548 17.9167 21.7498 13.4584 22.6273 11.6667C21.7498 9.875 18.9548 5.41672 14.1664 5.41672ZM14.1664 8.02086C16.2605 8.02086 17.9581 9.65312 17.9581 11.6667C17.9581 13.6802 16.2605 15.3125 14.1664 15.3125C12.0724 15.3125 10.3748 13.6802 10.3748 11.6667C10.3748 9.65312 12.0724 8.02086 14.1664 8.02086ZM14.1664 10.1042C13.269 10.1042 12.5414 10.8037 12.5414 11.6667C12.5414 12.5297 13.269 13.2292 14.1664 13.2292C15.0639 13.2292 15.7914 12.5296 15.7914 11.6667C15.7914 10.8038 15.0639 10.1042 14.1664 10.1042Z" fill="white"/>
</svg>
