<svg width="40" height="40" viewBox="0 0 40 40" fill="none" xmlns="http://www.w3.org/2000/svg">
<path d="M8.33329 6.66667V17.2217V17.18V33.3333V6.66667ZM6.66663 35V5H22.5L30 12.5V17.5333C29.7288 17.4378 29.4544 17.3706 29.1766 17.3317C28.8988 17.2928 28.6177 17.2561 28.3333 17.2217V13.3333H21.6666V6.66667H8.33329V33.3333H18.9833C19.19 33.6533 19.4222 33.9494 19.68 34.2217C19.9377 34.4939 20.2077 34.7533 20.49 35H6.66663ZM30.8266 30.82C31.7288 29.9144 32.18 28.8056 32.18 27.4933C32.18 26.1811 31.7266 25.0744 30.82 24.1733C29.9133 23.2722 28.8044 22.8211 27.4933 22.82C26.1822 22.8189 25.0755 23.2722 24.1733 24.18C23.2711 25.0878 22.82 26.1967 22.82 27.5067C22.82 28.8167 23.2733 29.9233 24.18 30.8267C25.0866 31.73 26.1955 32.1811 27.5066 32.18C28.8177 32.1789 29.9244 31.7256 30.8266 30.82ZM36 37.1467L31.3716 32.52C30.8305 32.9511 30.2305 33.28 29.5716 33.5067C28.9127 33.7333 28.2222 33.8467 27.5 33.8467C25.7377 33.8467 24.2394 33.2294 23.005 31.995C21.7705 30.7606 21.1538 29.2622 21.155 27.5C21.1561 25.7378 21.7727 24.2394 23.005 23.005C24.2372 21.7706 25.7355 21.1539 27.5 21.155C29.2644 21.1561 30.7627 21.7728 31.995 23.005C33.2272 24.2372 33.8438 25.7356 33.845 27.5C33.845 28.2222 33.7322 28.9128 33.5066 29.5717C33.2811 30.2306 32.9516 30.8306 32.5183 31.3717L37.15 36L36 37.1467Z" fill="white"/>
</svg>
