<svg width="98" height="98" viewBox="0 0 98 98" fill="none" xmlns="http://www.w3.org/2000/svg">
<path d="M65.366 77.5833C64.3969 77.5833 63.5993 77.2675 62.9732 76.636C62.347 76.0017 62.034 75.2177 62.034 74.284V57.1993C62.034 56.2302 62.3498 55.4326 62.9813 54.8065C63.6156 54.1803 64.3996 53.8673 65.3333 53.8673H82.4221C83.3912 53.8673 84.1874 54.1844 84.8108 54.8187C85.4342 55.453 85.7473 56.2356 85.75 57.1666V74.2554C85.75 75.2245 85.4342 76.0207 84.8027 76.6441C84.1711 77.2675 83.3871 77.5806 82.4507 77.5833H65.366ZM49 44.1326C48.0663 44.1326 47.2836 43.8168 46.6521 43.1853C46.0205 42.5537 45.7034 41.7697 45.7007 40.8333V23.7445C45.7007 22.7782 46.0178 21.9819 46.6521 21.3558C47.2863 20.7297 48.069 20.4166 49 20.4166H82.4507C83.3871 20.4166 84.1711 20.7324 84.8027 21.364C85.4342 21.9955 85.75 22.7795 85.75 23.716V40.8047C85.75 41.7711 85.4342 42.5673 84.8027 43.1935C84.1684 43.8196 83.3844 44.1326 82.4507 44.1326H49ZM15.5493 77.5833C14.6156 77.5833 13.8316 77.2675 13.1973 76.636C12.563 76.0044 12.2473 75.2204 12.25 74.284V57.1993C12.25 56.2302 12.5658 55.4326 13.1973 54.8065C13.8289 54.1803 14.6129 53.8673 15.5493 53.8673H49C49.9337 53.8673 50.7177 54.1831 51.352 54.8146C51.9863 55.4462 52.302 56.2302 52.2993 57.1666V74.2554C52.2993 75.2245 51.9835 76.0207 51.352 76.6441C50.7204 77.2675 49.9364 77.5806 49 77.5833H15.5493ZM15.5779 44.1326C14.6115 44.1326 13.8153 43.8168 13.1892 43.1853C12.563 42.5537 12.25 41.7697 12.25 40.8333V23.7445C12.25 22.7782 12.5658 21.9819 13.1973 21.3558C13.8289 20.7297 14.6129 20.4166 15.5493 20.4166H32.6381C33.6045 20.4166 34.4007 20.7324 35.0268 21.364C35.6529 21.9955 35.966 22.7795 35.966 23.716V40.8047C35.966 41.7711 35.6502 42.5673 35.0187 43.1935C34.3844 43.8196 33.6004 44.1326 32.6667 44.1326H15.5779ZM49.784 40.0493H81.6667V24.5H49.784V40.0493ZM16.3333 73.5H48.216V57.9506H16.3333V73.5ZM66.1173 73.5H81.6667V57.9506H66.1173V73.5ZM16.3333 40.0493H31.8827V24.5H16.3333V40.0493Z" fill="white"/>
</svg>
