<svg width="40" height="40" viewBox="0 0 40 40" fill="none" xmlns="http://www.w3.org/2000/svg">
<path d="M20 17.5C21.3261 17.5 22.5979 16.9732 23.5355 16.0355C24.4732 15.0979 25 13.8261 25 12.5C25 11.1739 24.4732 9.90215 23.5355 8.96447C22.5979 8.02678 21.3261 7.5 20 7.5C18.6739 7.5 17.4021 8.02678 16.4645 8.96447C15.5268 9.90215 15 11.1739 15 12.5C15 13.8261 15.5268 15.0979 16.4645 16.0355C17.4021 16.9732 18.6739 17.5 20 17.5ZM20 15C19.337 15 18.7011 14.7366 18.2322 14.2678C17.7634 13.7989 17.5 13.163 17.5 12.5C17.5 11.837 17.7634 11.2011 18.2322 10.7322C18.7011 10.2634 19.337 10 20 10C20.663 10 21.2989 10.2634 21.7678 10.7322C22.2366 11.2011 22.5 11.837 22.5 12.5C22.5 13.163 22.2366 13.7989 21.7678 14.2678C21.2989 14.7366 20.663 15 20 15ZM12.5 30C12.1685 30 11.8505 30.1317 11.6161 30.3661C11.3817 30.6005 11.25 30.9185 11.25 31.25C11.25 31.5815 11.3817 31.8995 11.6161 32.1339C11.8505 32.3683 12.1685 32.5 12.5 32.5H27.5C27.8315 32.5 28.1495 32.3683 28.3839 32.1339C28.6183 31.8995 28.75 31.5815 28.75 31.25C28.75 30.9185 28.6183 30.6005 28.3839 30.3661C28.1495 30.1317 27.8315 30 27.5 30H12.5ZM6.25 6.875C6.25 5.71468 6.71094 4.60188 7.53141 3.78141C8.35188 2.96094 9.46468 2.5 10.625 2.5H29.375C30.5353 2.5 31.6481 2.96094 32.4686 3.78141C33.2891 4.60188 33.75 5.71468 33.75 6.875V33.125C33.75 34.2853 33.2891 35.3981 32.4686 36.2186C31.6481 37.0391 30.5353 37.5 29.375 37.5H10.625C9.46468 37.5 8.35188 37.0391 7.53141 36.2186C6.71094 35.3981 6.25 34.2853 6.25 33.125V6.875ZM10.625 5C10.1277 5 9.65081 5.19754 9.29917 5.54917C8.94754 5.90081 8.75 6.37772 8.75 6.875V25H12.5V21.25C12.5 20.587 12.7634 19.9511 13.2322 19.4822C13.7011 19.0134 14.337 18.75 15 18.75H25C25.663 18.75 26.2989 19.0134 26.7678 19.4822C27.2366 19.9511 27.5 20.587 27.5 21.25V25H31.25V6.875C31.25 6.37772 31.0525 5.90081 30.7008 5.54917C30.3492 5.19754 29.8723 5 29.375 5H10.625ZM8.75 33.125C8.75 33.6223 8.94754 34.0992 9.29917 34.4508C9.65081 34.8025 10.1277 35 10.625 35H29.375C29.8723 35 30.3492 34.8025 30.7008 34.4508C31.0525 34.0992 31.25 33.6223 31.25 33.125V27.5H8.75V33.125ZM25 21.25H15V25H25V21.25Z" fill="white"/>
</svg>
