<svg width="40" height="40" viewBox="0 0 40 40" fill="none" xmlns="http://www.w3.org/2000/svg">
<path d="M10.8333 30.8333H29.1666M10.8333 25H29.1666M24.4733 2.56667C25.2208 2.8 27.6208 3.75167 31.0875 7.1325C34.3541 10.3183 35.41 12.5808 35.72 13.4408C35.7891 15.3083 35.8333 17.4833 35.8333 20C35.8333 26.7208 35.5208 31.0033 35.2358 33.5117C35.0275 35.3467 33.65 36.7183 31.8166 36.9325C29.4708 37.2067 25.6391 37.5 20 37.5C14.3608 37.5 10.5291 37.2067 8.18329 36.9333C6.34996 36.7183 4.97246 35.3467 4.76413 33.5117C4.47913 31.0033 4.16663 26.72 4.16663 20C4.16663 13.28 4.47913 8.99667 4.76413 6.48833C4.97246 4.65333 6.34996 3.28167 8.18329 3.06667C10.5291 2.79417 14.3608 2.5 20 2.5C21.6416 2.5 23.13 2.525 24.4733 2.56667Z" stroke="white" stroke-width="2.5" stroke-linecap="round" stroke-linejoin="round"/>
<path d="M10.8333 19.0566C12.9766 15.7816 14.7641 14.3433 15.7466 13.74C16.2108 13.4541 16.7716 13.6408 17.0133 14.13C17.5658 15.2508 18.0883 16.7908 18.4608 18.0133C18.6808 18.73 19.7274 18.8841 20.1883 18.2925C22.0433 15.9125 24.5833 13.75 24.5833 13.75M27.9724 15.2666C28.3391 13.33 28.3533 11.6308 28.3224 10.7308C28.3172 10.5414 28.2397 10.3612 28.1058 10.2272C27.9719 10.0932 27.7918 10.0154 27.6024 10.01C26.082 9.96394 24.5611 10.0813 23.0658 10.36C22.4374 10.4791 22.2291 11.245 22.6824 11.6975L26.6358 15.6516C27.0883 16.1041 27.8533 15.895 27.9724 15.2666Z" stroke="white" stroke-width="2.5" stroke-linecap="round" stroke-linejoin="round"/>
</svg>
