<svg width="40" height="40" viewBox="0 0 40 40" fill="none" xmlns="http://www.w3.org/2000/svg">
<path d="M20 13.75C18.3424 13.75 16.7527 14.4085 15.5806 15.5806C14.4085 16.7527 13.75 18.3424 13.75 20C13.75 21.6576 14.4085 23.2473 15.5806 24.4194C16.7527 25.5915 18.3424 26.25 20 26.25C21.6576 26.25 23.2473 25.5915 24.4194 24.4194C25.5915 23.2473 26.25 21.6576 26.25 20C26.25 18.3424 25.5915 16.7527 24.4194 15.5806C23.2473 14.4085 21.6576 13.75 20 13.75ZM16.25 20C16.25 19.0055 16.6451 18.0516 17.3483 17.3484C18.0516 16.6451 19.0054 16.25 20 16.25C20.9946 16.25 21.9484 16.6451 22.6516 17.3484C23.3549 18.0516 23.75 19.0055 23.75 20C23.75 20.9946 23.3549 21.9484 22.6516 22.6517C21.9484 23.3549 20.9946 23.75 20 23.75C19.0054 23.75 18.0516 23.3549 17.3483 22.6517C16.6451 21.9484 16.25 20.9946 16.25 20ZM16.05 37.035C17.3437 37.3438 18.67 37.5 20 37.5C21.3288 37.4985 22.6528 37.3412 23.945 37.0313C24.3161 36.9434 24.651 36.743 24.9039 36.4575C25.1568 36.172 25.3152 35.8153 25.3575 35.4363L25.65 32.7738C25.6779 32.4832 25.7747 32.2035 25.9323 31.9578C26.0899 31.712 26.3037 31.5074 26.5562 31.3608C26.8086 31.2142 27.0923 31.1298 27.3838 31.1147C27.6753 31.0995 27.9663 31.1541 28.2325 31.2738L30.6762 32.3438C31.026 32.4981 31.4152 32.5395 31.7896 32.4622C32.164 32.3849 32.505 32.1928 32.765 31.9125C34.5705 29.9669 35.9184 27.6423 36.71 25.1088C36.8231 24.7423 36.8195 24.3497 36.6997 23.9853C36.5799 23.621 36.3498 23.3029 36.0412 23.075L33.88 21.4813C33.6437 21.3094 33.4515 21.084 33.319 20.8236C33.1866 20.5631 33.1178 20.275 33.1181 19.9828C33.1185 19.6906 33.1881 19.4027 33.3212 19.1426C33.4542 18.8824 33.647 18.6575 33.8837 18.4863L36.0337 16.8988C36.3449 16.6722 36.5771 16.3537 36.6976 15.9881C36.818 15.6226 36.8206 15.2284 36.705 14.8613C35.9149 12.3268 34.5664 10.0018 32.7587 8.05752C32.4974 7.77807 32.1558 7.58654 31.781 7.5093C31.4063 7.43207 31.0168 7.47293 30.6662 7.62627L28.2337 8.69627C27.9671 8.81249 27.6769 8.86434 27.3865 8.84764C27.0962 8.83094 26.8138 8.74615 26.5623 8.60012C26.3107 8.45409 26.0971 8.25093 25.9386 8.00705C25.7801 7.76318 25.6813 7.48543 25.65 7.19627L25.355 4.54627C25.313 4.16285 25.1523 3.80213 24.8952 3.51458C24.6381 3.22703 24.2976 3.02701 23.9212 2.94252C22.6379 2.65459 21.3277 2.5025 20.0125 2.48877C18.6896 2.50448 17.3718 2.65653 16.08 2.94252C15.7034 3.02507 15.3622 3.224 15.1049 3.51115C14.8476 3.7983 14.6871 4.15912 14.6462 4.54252L14.35 7.19502C14.3176 7.48462 14.2179 7.76261 14.0588 8.00674C13.8997 8.25088 13.6856 8.45436 13.4338 8.60089C13.1819 8.74742 12.8992 8.83294 12.6083 8.85059C12.3175 8.86823 12.0265 8.81753 11.7587 8.70252L9.32625 7.63127C8.97537 7.48165 8.58701 7.44338 8.21368 7.52162C7.84034 7.59987 7.50003 7.79086 7.23875 8.06877C5.43097 10.015 4.08136 12.341 3.28875 14.8763C3.17634 15.2425 3.18043 15.6347 3.30045 15.9985C3.42046 16.3624 3.65048 16.68 3.95875 16.9075L6.115 18.4975C6.34989 18.6704 6.54084 18.896 6.67245 19.1562C6.80406 19.4165 6.87263 19.704 6.87263 19.9956C6.87263 20.2873 6.80406 20.5748 6.67245 20.835C6.54084 21.0953 6.34989 21.3209 6.115 21.4938L3.95875 23.0875C3.64947 23.3156 3.41889 23.6344 3.29905 23.9995C3.1792 24.3646 3.17604 24.758 3.29 25.125C4.08193 27.6621 5.43157 29.9898 7.24 31.9375C7.41201 32.1222 7.62046 32.2693 7.85218 32.3693C8.0839 32.4694 8.33386 32.5202 8.58625 32.5188C8.84 32.5188 9.09125 32.4663 9.325 32.365L11.7687 31.2913C12.0353 31.1761 12.3251 31.1251 12.615 31.1423C12.9048 31.1595 13.1866 31.2444 13.4376 31.3903C13.6887 31.5362 13.902 31.739 14.0605 31.9823C14.2189 32.2256 14.3181 32.5027 14.35 32.7913L14.6437 35.4488C14.6871 35.8256 14.8453 36.1801 15.0968 36.464C15.3484 36.748 15.6811 36.9465 16.05 37.035ZM22.9262 34.7038C20.9977 35.1007 19.0085 35.1007 17.08 34.7038L16.8362 32.5288C16.7171 31.4648 16.2097 30.4821 15.4112 29.7688C14.7864 29.2178 14.0183 28.8549 13.1959 28.7222C12.3734 28.5895 11.5302 28.6923 10.7637 29.0188L8.75625 29.8938C7.46029 28.4116 6.46361 26.6924 5.82125 24.8313L7.60125 23.5163C8.15118 23.111 8.59819 22.5823 8.90627 21.9726C9.21434 21.3629 9.37484 20.6894 9.37484 20.0063C9.37484 19.3232 9.21434 18.6496 8.90627 18.0399C8.59819 17.4303 8.15118 16.9015 7.60125 16.4963L5.825 15.1838C6.46794 13.3244 7.46459 11.607 8.76 10.1263L10.76 11.0013C11.3112 11.2447 11.9074 11.3699 12.51 11.3688C13.5831 11.3654 14.6176 10.9678 15.4166 10.2514C16.2157 9.53513 16.7236 8.55013 16.8437 7.48377L17.0862 5.30002C18.0537 5.11252 19.0362 5.01252 20.02 5.00002C20.9975 5.01252 21.9725 5.11252 22.9325 5.30002L23.165 7.47502C23.2808 8.54207 23.787 9.52865 24.5862 10.245C25.2122 10.7982 25.9822 11.1623 26.8069 11.2951C27.6316 11.4278 28.4771 11.3238 29.245 10.995L31.245 10.12C32.5414 11.6009 33.539 13.3188 34.1825 15.1788L32.4037 16.4863C31.851 16.8901 31.4014 17.4187 31.0914 18.029C30.7814 18.6393 30.6198 19.3142 30.6198 19.9988C30.6198 20.6833 30.7814 21.3582 31.0914 21.9685C31.4014 22.5789 31.851 23.1075 32.4037 23.5113L34.1812 24.8238C33.536 26.6798 32.541 28.3949 31.25 29.8763L29.25 29.0013C28.6241 28.7228 27.9413 28.5963 27.2572 28.6322C26.5731 28.6682 25.9072 28.8655 25.314 29.2081C24.7208 29.5507 24.217 30.0288 23.844 30.6033C23.4709 31.1778 23.2391 31.8325 23.1675 32.5138L22.9262 34.7038Z" fill="white"/>
</svg>
