<svg width="40" height="40" viewBox="0 0 40 40" fill="none" xmlns="http://www.w3.org/2000/svg">
<path d="M13.3333 31.5466C15.3602 32.717 17.6595 33.3332 20 33.3333C22.3405 33.3334 24.6399 32.7174 26.6669 31.5471C28.6939 30.3769 30.3771 28.6937 31.5474 26.6668C32.7177 24.6398 33.3338 22.3405 33.3338 20C33.3338 17.6594 32.7177 15.3601 31.5474 13.3331C30.3771 11.3062 28.6939 9.62301 26.6669 8.45278C24.6399 7.28256 22.3405 6.66654 20 6.66663C17.6595 6.66672 15.3602 7.28292 13.3333 8.45329" stroke="white" stroke-width="3.33333"/>
<path d="M3.33328 20L2.03328 18.9583L1.19995 20L2.03328 21.0417L3.33328 20ZM18.3333 21.6667C18.7753 21.6667 19.1992 21.4911 19.5118 21.1785C19.8244 20.866 20 20.442 20 20C20 19.558 19.8244 19.134 19.5118 18.8215C19.1992 18.5089 18.7753 18.3333 18.3333 18.3333V21.6667ZM8.69995 10.625L2.03328 18.9583L4.63328 21.0417L11.3 12.7083L8.69995 10.625ZM2.03328 21.0417L8.69995 29.375L11.3 27.2917L4.63328 18.9583L2.03328 21.0417ZM3.33328 21.6667H18.3333V18.3333H3.33328V21.6667Z" fill="white"/>
</svg>
