<svg width="40" height="40" viewBox="0 0 40 40" fill="none" xmlns="http://www.w3.org/2000/svg">
<path fill-rule="evenodd" clip-rule="evenodd" d="M23.3335 9.16661C23.3335 10.5473 22.2142 11.6666 20.8335 11.6666C19.4528 11.6666 18.3335 10.5473 18.3335 9.16661C18.3335 7.78591 19.4528 6.66661 20.8335 6.66661C22.2142 6.66661 23.3335 7.78591 23.3335 9.16661ZM26.6669 9.16661C26.6669 12.3883 24.0552 14.9999 20.8335 14.9999C17.6118 14.9999 15.0002 12.3883 15.0002 9.16661C15.0002 5.94489 17.6119 3.33325 20.8335 3.33325C24.0552 3.33325 26.6669 5.94497 26.6669 9.16661ZM9.16693 15.0001C9.62717 15.0001 10.0002 14.627 10.0002 14.1668C10.0002 13.7065 9.62717 13.3334 9.16693 13.3334C8.7067 13.3334 8.33357 13.7065 8.33357 14.1668C8.33357 14.627 8.7067 15.0001 9.16693 15.0001ZM9.16693 18.3334C11.4681 18.3334 13.3336 16.4679 13.3336 14.1668C13.3336 11.8656 11.4681 10.0001 9.16693 10.0001C6.86568 10.0001 5.00021 11.8656 5.00021 14.1668C5.00021 16.4679 6.86568 18.3334 9.16693 18.3334ZM22.804 19.9998H18.3333C16.4924 19.9998 15 21.4922 15 23.3332V24.9576L15.0001 24.9843L15.0002 25.0001V28.3332H18.3335V28.3333C18.3335 29.502 18.534 30.624 18.9025 31.6665H15.0002V31.6668H3.3335V25.0001C3.3335 22.2386 5.57209 20.0001 8.3335 20.0001H10.0002C10.8195 20.0001 11.5928 20.1972 12.2753 20.5465C13.3305 18.2562 15.6463 16.6665 18.3333 16.6665H23.3333C25.0329 16.6665 26.5839 17.3025 27.7613 18.3493C25.9913 18.4478 24.2798 19.0177 22.804 19.9998ZM11.6667 24.9755C11.6535 24.0664 10.9125 23.3334 10.0002 23.3334H8.3335C7.41303 23.3334 6.66686 24.0796 6.66686 25.0001V28.3334H11.6667V24.9755ZM30.6388 20.0001H26.0092V21.7837C25.2044 22.0685 24.459 22.4994 23.8106 23.0547L22.2646 22.1621L19.9497 26.1715L21.4946 27.0634C21.4174 27.4823 21.3786 27.9074 21.3788 28.3333C21.3788 28.7671 21.4186 29.1915 21.4947 29.6033L19.9497 30.4952L22.2645 34.5046L23.8107 33.6119C24.4591 34.1672 25.2044 34.5981 26.0092 34.8829V36.6668H30.6388V34.8823C31.4432 34.5975 32.1881 34.1667 32.8362 33.6115L34.3835 34.5048L36.6983 30.4954L35.1519 29.6026C35.2291 29.1839 35.2678 28.7591 35.2676 28.3333C35.2676 27.8998 35.2279 27.4755 35.1519 27.064L36.6983 26.1713L34.3834 22.1618L32.8363 23.0551C32.1882 22.5 31.4432 22.0691 30.6388 21.7843V20.0001ZM28.3233 31.1113C29.8573 31.1113 31.101 29.8676 31.101 28.3335C31.101 26.7993 29.8573 25.5557 28.3233 25.5557C26.7891 25.5557 25.5454 26.7993 25.5454 28.3335C25.5454 29.8676 26.7891 31.1113 28.3233 31.1113Z" fill="white"/>
</svg>
