<svg width="40" height="40" viewBox="0 0 40 40" fill="none" xmlns="http://www.w3.org/2000/svg">
<path d="M20.0002 33.3333C23.5364 33.3333 26.9278 31.9285 29.4283 29.428C31.9287 26.9275 33.3335 23.5361 33.3335 19.9999C33.3335 16.4637 31.9287 13.0723 29.4283 10.5718C26.9278 8.07134 23.5364 6.66659 20.0002 6.66659C16.4639 6.66659 13.0726 8.07134 10.5721 10.5718C8.07159 13.0723 6.66683 16.4637 6.66683 19.9999C6.66683 23.5361 8.07159 26.9275 10.5721 29.428C13.0726 31.9285 16.4639 33.3333 20.0002 33.3333ZM20.0002 36.6666C10.7952 36.6666 3.3335 29.2049 3.3335 19.9999C3.3335 10.7949 10.7952 3.33325 20.0002 3.33325C29.2052 3.33325 36.6668 10.7949 36.6668 19.9999C36.6668 29.2049 29.2052 36.6666 20.0002 36.6666ZM18.3335 26.6666H21.6668V29.9999H18.3335V26.6666ZM18.3335 9.99992H21.6668V23.3333H18.3335V9.99992Z" fill="#00167A"/>
</svg>
